HIERARCHY
ROOT pelvis
{
  OFFSET 0 100 0
  CHANNELS 6 Xposition Yposition Zposition Zrotation Xrotation Yrotation
  JOINT pelvis_right_femur
  {
    OFFSET -10.78128 -3.44521 -0.5502486
    CHANNELS 3 Zrotation Xrotation Yrotation
    JOINT right_femur_tibia
    {
      OFFSET -0.8047443 -44.0398 -0.1307829
      CHANNELS 3 Zrotation Xrotation Yrotation
      JOINT right_tibia_foot
      {
        OFFSET 3.006224 -47.83518 -5
        CHANNELS 3 Zrotation Xrotation Yrotation
        End Site
        {
          OFFSET 0 -5 15
        }
      }
    }
  }
  JOINT pelvis_left_femur
  {
    OFFSET 10.78128 -3.44521 -0.5502486
    CHANNELS 3 Zrotation Xrotation Yrotation
    JOINT left_femur_tibia
    {
      OFFSET 0.8047443 -44.0398 -0.1307829
      CHANNELS 3 Zrotation Xrotation Yrotation
      JOINT left_tibia_foot
      {
        OFFSET -4.370144 -48.10324 -4.275266
        CHANNELS 3 Zrotation Xrotation Yrotation
        End Site
        {
          OFFSET 0 -5 15
        }
      }
    }
  }
  JOINT pelvis_spine1
  {
    OFFSET 0 6.468898 -3.129235
    CHANNELS 3 Zrotation Xrotation Yrotation
    JOINT spine1
    {
      OFFSET 0 23.15396 4.99043
      CHANNELS 3 Zrotation Xrotation Yrotation
      JOINT spine2
      {
        OFFSET 0 20.79997 -5.064912
        CHANNELS 3 Zrotation Xrotation Yrotation
        JOINT neck
        {
          OFFSET 0 14.38658 9.616178
          CHANNELS 3 Zrotation Xrotation Yrotation
          End Site
          {
            OFFSET 0 20 0
          }
        }
      }
      JOINT right_manubrium
      {
        OFFSET -5.722621 16.35077 3.967754
        CHANNELS 3 Zrotation Xrotation Yrotation
        JOINT right_clavicle
        {
          OFFSET -13.16364 1.694482 -4.693211
          CHANNELS 3 Zrotation Xrotation Yrotation
          JOINT right_humerus
          {
            OFFSET -28.5034 -0.3100689 -2.792744
            CHANNELS 3 Zrotation Xrotation Yrotation
            JOINT right_radius
            {
              OFFSET -25.15693 0.02248979 -1.271978
              CHANNELS 3 Zrotation Xrotation Yrotation
              End Site
              {
                OFFSET -15 0 0
              }
            }
          }
        }
      }
      JOINT left_manubrium
      {
        OFFSET 5.722621 16.35077 3.967754
        CHANNELS 3 Zrotation Xrotation Yrotation
        JOINT left_clavicle
        {
          OFFSET 13.16364 1.694482 -4.693211
          CHANNELS 3 Zrotation Xrotation Yrotation
          JOINT left_humerus
          {
            OFFSET 29.39168 -1.063119 -2.237045
            CHANNELS 3 Zrotation Xrotation Yrotation
            JOINT left_radius
            {
              OFFSET 24.59957 -0.9528479 0.9047498
              CHANNELS 3 Zrotation Xrotation Yrotation
              End Site
              {
                OFFSET 15 -0 -0
              }
            }
          }
        }
      }
    }
  }
}
MOTION
Frames: 15
Frame Time: 0.0416666666667
0 103.5113 0 2.365051 -0.7678751 0.05494905 1.546847 -12.4359 10.62712 -0 39.62715 -0 -5.557595 -18.6355 -2.906908 -8.279411 8.944204 -24.59741 -0 5.631543 -0 15.84041 -11.58936 29.62054 -4.586277 -4.999957 5.342246 2.348184 10.29715 -7.030246 1.918057 22.5282 5.566771 1.951182 -23.94639 9.747261 7.130312 -20.41314 11.63447 84.7208 37.32027 -16.90268 -0 0 15.9929 -7.273914 8.57374 5.469512 4.684805 -18.06634 -1.836923 -91.84168 20.98181 20.00651 0 0 -12.40991 15.38344 15.37564 -3.636168
0.3821959 103.7317 1.484931 1.741072 -0.3294727 0.04666096 2.448719 -14.99344 10.37958 -0 39.34497 -0 -5.88806 -17.13851 -2.801276 -7.899429 9.04554 -23.87628 -0 5.364008 -0 15.03009 -12.81964 29.20357 -4.226244 -4.68466 5.298482 2.422938 10.38515 -7.264255 1.800593 22.06837 5.938932 2.351349 -24.4245 9.747077 7.068421 -20.44424 11.6605 84.8219 37.09788 -17.27059 -0 0 16.2029 -7.383428 8.743739 5.280875 5.328573 -18.84212 -1.544034 -92.01456 20.84175 20.18105 0 0 -13.08495 15.49702 15.27637 -3.568586
0.7868135 102.9293 4.676742 -0.7522195 -2.307274 0.1005043 3.227796 -26.97953 1.27822 -0 30.46429 -0 -8.51469 -2.25886 -1.099678 -5.15048 11.3745 -16.32663 -0 3.991906 -0 5.518702 -19.50972 20.17651 -2.29179 -1.037481 2.411824 2.158694 10.78179 -7.307567 1.191093 22.27352 7.094318 3.761377 -23.12208 8.254303 4.313425 -18.78765 12.22143 87.08144 27.96461 -18.26053 -0 0 11.97859 -15.67419 8.95403 9.297249 7.103015 -22.71797 -4.281243 -89.56682 21.25034 16.29954 0 0 -18.43401 11.33298 17.26789 0.1070939
1.044613 102.2722 8.001574 -1.333591 1.00204 0.2940569 5.551392 -31.94113 3.663053 -0 22.71471 -0 -7.474937 -5.145053 -1.602987 -4.901663 12.75602 -17.14016 -0 6.010826 -0 3.773793 -21.89727 19.35468 -2.202222 -1.338769 3.012642 2.879631 9.55624 -8.118354 1.405973 20.87426 7.324803 3.99782 -24.88438 8.926323 4.908195 -18.12732 11.66398 86.66219 30.99443 -20.00917 -0 0 13.14244 -12.44811 9.728801 6.985723 8.020149 -22.70586 -2.27331 -90.47996 23.00192 16.81093 0 0 -20.0006 10.2065 17.12922 1.569063
1.258782 101.1972 11.99371 -1.081835 1.167262 0.60007 4.985082 -33.39919 1.174792 -0 15.55205 -0 -7.608932 -1.897732 -1.055076 -4.799986 13.61462 -15.19925 -0 7.924677 -0 1.537477 -22.53021 15.85763 -2.235084 -0.8555548 2.54951 3.125077 9.501358 -8.247151 1.288092 20.83393 7.101947 3.980981 -24.63439 8.174726 4.422069 -17.50501 11.85115 87.30863 28.88849 -20.75956 -0 0 11.23863 -14.08848 9.550701 8.579515 7.605637 -23.06044 -3.304297 -89.34862 22.86665 15.45291 0 0 -21.90306 8.425966 16.61814 3.336651
1.53942 99.73164 16.35797 -0.3033994 -0.2424773 0.9024834 3.259983 -32.4206 -2.175259 -0 12.04784 -0 -8.085063 1.038724 -0.1101383 -5.154088 13.61097 -13.29394 -0 7.359801 -0 2.212167 -22.08662 14.59878 -2.560958 -0.6857495 2.318453 2.95195 10.37346 -8.058678 1.044324 21.2374 6.814124 3.998276 -23.40923 7.154712 3.702249 -17.58963 12.3048 87.99017 25.90786 -20.59004 -0 0 9.55933 -16.91194 9.000555 10.49732 7.563263 -23.97184 -4.827173 -87.65737 19.85329 13.33641 0 0 -23.26588 9.912437 16.07508 0.7812689
1.875681 98.07256 21.06579 0.416131 -1.582762 1.2536 1.85523 -31.01337 -4.870395 -0 9.342998 -0 -8.398686 2.973068 0.6230287 -5.518989 13.78268 -11.83577 -0 7.048062 -0 2.616197 -21.81495 13.84036 -2.77057 -0.6299168 2.222251 2.699967 10.96192 -7.83249 0.8704382 21.74142 6.637534 3.981734 -22.44391 6.503559 2.786946 -17.69117 12.51451 88.92319 23.40893 -20.66428 -0 0 8.052013 -19.06512 8.456187 11.6125 7.559109 -24.72679 -6.018955 -86.394 17.73447 11.65063 0 0 -24.72564 11.18563 15.77074 -1.313459
2.259338 96.37019 26.10254 0.9610688 -2.409991 1.64129 1.141951 -29.84494 -6.691864 -0 7.163186 -0 -8.67091 4.284323 1.285983 -5.844484 14.00959 -10.79676 -0 7.540024 -0 2.845418 -21.61942 13.36522 -2.872693 -0.7450468 2.26984 2.445863 11.34842 -7.685528 0.7250542 21.9898 6.594644 4.092296 -21.77444 6.060173 2.103177 -17.738 12.57262 89.67606 21.98929 -20.87235 -0 0 7.083002 -20.49286 8.24436 12.00711 7.796062 -25.40328 -6.671434 -85.58312 15.8431 10.39532 0 0 -25.99099 12.55274 15.44786 -3.466973
2.666317 94.64244 31.44015 1.434858 -3.297354 2.041798 0.6259843 -28.39931 -8.248761 -0 5.609055 -0 -8.953628 5.236477 1.842873 -6.139816 14.36054 -9.904747 -0 8.536668 -0 2.88601 -21.37354 13.12034 -2.841286 -0.9297447 2.342945 2.108311 11.60316 -7.506201 0.6135464 22.34773 6.612311 4.178053 -21.15064 5.799767 1.265545 -17.76163 12.48685 90.59378 20.77522 -21.20584 -0 0 6.131879 -21.72714 8.138658 11.9806 8.052908 -26.03439 -7.209248 -84.90188 14.40177 9.269146 0 0 -27.3047 13.86592 15.33832 -5.458324
3.071474 93.01678 37.13671 1.816077 -4.089131 2.425869 0.5309464 -26.78761 -9.514047 -0 4.438781 -0 -9.314994 6.104835 2.376775 -6.421153 14.81501 -9.039675 -0 10.82911 -0 2.769892 -20.91608 12.95015 -2.639734 -1.304635 2.495221 1.682308 11.79943 -7.365154 0.4921476 22.66437 6.684092 4.326835 -20.50945 5.584297 0.4023158 -17.75079 12.27357 91.57998 19.9616 -21.74899 -0 0 5.33824 -22.78422 8.283652 11.48664 8.447412 -26.74529 -7.580909 -84.35554 12.99113 8.28303 0 0 -28.74432 15.32319 15.29925 -7.594198
3.425698 91.67208 43.25331 1.98208 -4.735526 2.741392 1.042973 -25.03136 -10.20113 -0 3.931131 -0 -9.690572 6.872032 2.641698 -6.618833 15.37137 -8.154288 -0 15.1123 -0 2.448532 -20.03578 12.79369 -2.157664 -1.956787 2.719997 1.236559 11.95294 -7.344687 0.3825394 22.97855 6.721801 4.384929 -19.95926 5.452584 -0.5579194 -17.74819 11.92293 92.72377 19.26302 -22.67184 -0 0 4.6396 -23.46164 8.629111 10.54754 8.768543 -27.47836 -7.825443 -83.97179 12.09572 7.710193 0 0 -30.29507 16.54807 15.47532 -9.16386
3.65761 90.94285 49.89247 1.707167 -4.993341 2.873447 2.675212 -23.36244 -9.676984 -0 4.585025 -0 -9.98977 7.865045 2.219253 -6.621441 15.84191 -7.066678 -0 23.15961 -0 2.169011 -18.10094 12.48146 -1.218243 -3.202755 3.099546 0.9248207 12.35268 -7.713609 0.2760084 23.09647 6.479023 4.198593 -19.5218 5.182075 -1.475017 -17.94118 11.51461 93.8959 18.18387 -24.20334 -0 0 4.361272 -23.39983 9.070632 9.358133 8.756681 -28.32164 -8.009171 -83.90605 11.88753 8.185451 0 0 -31.8309 17.05371 15.84092 -9.172813
3.712083 91.26241 57.1104 0.704762 -4.616919 2.628708 5.84996 -22.20447 -6.784301 -0 7.22254 -0 -9.808122 9.683143 0.1257299 -6.16791 15.65513 -5.59164 -0 36.36621 -0 2.614274 -14.1836 11.77772 0.2920905 -5.39112 3.726615 1.196513 13.77743 -8.956489 0.2445834 22.64038 5.346101 3.389861 -19.2441 4.271654 -2.068359 -18.89351 11.37964 94.67531 14.86733 -26.29712 -0 0 5.257632 -22.05684 8.931242 9.153773 7.582182 -29.28229 -8.54085 -84.61757 13.06965 11.07222 0 0 -32.67967 15.1589 16.07097 -4.611382
3.677757 92.72672 64.81344 -0.5636129 -4.228101 1.819389 9.454849 -20.96338 -1.602737 -0 11.75261 -0 -8.385118 13.04331 -4.292916 -5.145917 13.94053 -3.861497 -0 52.47369 -0 4.196513 -8.197955 10.46551 1.998485 -8.294638 4.772033 2.313186 17.30324 -11.21666 0.4243921 21.16824 2.761933 2.103339 -18.43869 1.812483 -1.993325 -21.43775 11.98224 94.47176 6.827356 -27.92767 -0 0 8.899125 -19.85377 7.30651 12.26809 4.4953 -30.29651 -10.39973 -86.95259 16.11856 17.48133 0 0 -32.02438 8.517126 14.31141 8.281042
3.662458 94.56269 72.46704 -0.9489497 -5.521587 0.5286403 10.18056 -16.94604 1.649652 -0 14.85476 -0 -6.870568 14.16019 -7.793147 -3.692312 9.971708 -3.413514 -0 62.57476 -0 4.552089 -3.580921 9.7874 2.98168 -9.470841 5.907688 2.866541 20.77885 -12.28133 1.005501 19.86323 0.6416712 1.535361 -17.31855 -0.1953582 -1.926107 -24.28284 12.85101 94.34538 -0.5294518 -27.27399 -0 0 14.00007 -19.48345 6.761417 16.54481 1.441552 -30.35292 -12.6909 -90.51438 19.79739 24.13443 0 0 -29.51834 1.144921 10.85252 21.60968
